<svg width="48" height="48" viewBox="0 0 48 48" fill="none" xmlns="http://www.w3.org/2000/svg">
<path d="M0 24C0 10.7452 10.7452 0 24 0C37.2548 0 48 10.7452 48 24C48 37.2548 37.2548 48 24 48C10.7452 48 0 37.2548 0 24Z" fill="#FF836A"/>
<path d="M11.1138 30.7558L16.6943 33.9013C16.8395 32.4641 17.2682 31.0343 17.8472 29.6797L12.9214 25.9863C11.6295 28.9167 11.1143 30.7535 11.1138 30.7558Z" fill="white"/>
<path d="M13.8647 23.9527L18.7403 27.8918C19.8497 25.8048 21.2134 24.002 22.2245 22.7929L17.2049 17.9346C15.8323 20.1291 14.7318 22.1719 13.8647 23.9527Z" fill="white"/>
<path d="M23.6735 28.2824C23.8797 28.5536 24.0932 28.8451 24.3073 29.1547C25.3828 30.709 26.1217 32.1915 26.4877 33.5177C25.4534 34.2253 24.5863 34.8524 23.883 35.3879L23.6735 35.5192L23.4639 35.3879C22.7606 34.8524 21.8935 34.2253 20.8592 33.5177C21.2252 32.1915 21.9641 30.709 23.0397 29.1547C23.2538 28.8456 23.4667 28.5536 23.6735 28.2824ZM23.6774 24.3569C23.6774 24.3569 23.6763 24.3581 23.6735 24.3609C23.6706 24.3581 23.6695 24.3569 23.6695 24.3569C23.6695 24.3569 23.6695 24.3598 23.6695 24.3649C23.4532 24.58 18.4279 29.6273 18.0449 34.7092C21.7946 37.1755 23.3594 38.564 23.6695 38.8894C23.6695 38.8923 23.6695 38.8951 23.6695 38.8979C23.6706 38.8968 23.6723 38.8951 23.6735 38.894C23.6746 38.8951 23.6763 38.8968 23.6774 38.8979C23.6774 38.8951 23.6774 38.8923 23.6774 38.8894C23.987 38.5645 25.5517 37.1755 29.302 34.7092C28.9196 29.6273 23.8938 24.58 23.6774 24.3649C23.6774 24.3598 23.6774 24.3569 23.6774 24.3569Z" fill="white"/>
<path d="M36.2117 30.7557L30.6312 33.9012C30.486 32.464 30.0573 31.0342 29.4783 29.6797L34.4035 25.9868C35.696 28.9166 36.2112 30.7534 36.2117 30.7557Z" fill="white"/>
<path d="M33.4601 23.9527L28.5846 27.8918C27.4751 25.8048 26.1115 24.002 25.1003 22.7929L30.1199 17.9346C31.4932 20.1291 32.5936 22.1719 33.4601 23.9527Z" fill="white"/>
<path d="M28.6067 15.7718C27.186 13.6837 25.5264 11.4977 23.5978 9.29802L23.5645 9.26123H23.5566L23.5233 9.29802C21.5947 11.4977 19.9357 13.6837 18.5144 15.7718C18.6647 15.9563 18.8183 16.1188 18.9742 16.2654L23.5566 21.1883H23.5645L28.1469 16.2654C28.3028 16.1188 28.4559 15.9563 28.6067 15.7718Z" fill="white"/>
</svg>
