<svg width="564" height="286" viewBox="0 0 564 286" fill="none" xmlns="http://www.w3.org/2000/svg">
<rect width="564" height="286" fill="#E06285"/>
<path d="M305.333 146.333C304.449 146.333 303.601 146.685 302.976 147.31C302.351 147.935 302 148.783 302 149.667V150.967L297.067 146.033C296.208 145.17 295.188 144.484 294.064 144.016C292.94 143.549 291.734 143.308 290.517 143.308C289.299 143.308 288.093 143.549 286.969 144.016C285.845 144.484 284.825 145.17 283.967 146.033L281.633 148.367L273.367 140.067C271.596 138.393 269.253 137.46 266.817 137.46C264.38 137.46 262.037 138.393 260.267 140.067L255.333 145V126.333C255.333 125.449 255.684 124.601 256.309 123.976C256.935 123.351 257.782 123 258.667 123H285.333C286.217 123 287.065 122.649 287.69 122.024C288.315 121.399 288.667 120.551 288.667 119.667C288.667 118.783 288.315 117.935 287.69 117.31C287.065 116.685 286.217 116.333 285.333 116.333H258.667C256.014 116.333 253.471 117.387 251.595 119.262C249.72 121.138 248.667 123.681 248.667 126.333V166.333C248.667 168.986 249.72 171.529 251.595 173.404C253.471 175.28 256.014 176.333 258.667 176.333H298.667C301.319 176.333 303.862 175.28 305.738 173.404C307.613 171.529 308.667 168.986 308.667 166.333V149.667C308.667 148.783 308.315 147.935 307.69 147.31C307.065 146.685 306.217 146.333 305.333 146.333ZM258.667 169.667C257.782 169.667 256.935 169.315 256.309 168.69C255.684 168.065 255.333 167.217 255.333 166.333V154.433L265 144.767C265.49 144.3 266.14 144.04 266.817 144.04C267.493 144.04 268.143 144.3 268.633 144.767L279.2 155.333L293.5 169.667H258.667ZM302 166.333C301.972 166.967 301.764 167.58 301.4 168.1L286.367 153L288.7 150.667C289.187 150.182 289.846 149.91 290.533 149.91C291.22 149.91 291.879 150.182 292.367 150.667L302 160.4V166.333ZM305.333 109.667C303.577 109.666 301.851 110.127 300.33 111.005C298.808 111.883 297.545 113.146 296.667 114.667C296.446 115.047 296.303 115.467 296.246 115.903C296.189 116.339 296.218 116.782 296.333 117.207C296.447 117.631 296.645 118.029 296.914 118.377C297.183 118.724 297.518 119.016 297.9 119.233C298.665 119.668 299.571 119.782 300.421 119.551C301.27 119.32 301.993 118.762 302.433 118C302.797 117.358 303.364 116.855 304.044 116.569C304.725 116.284 305.481 116.233 306.194 116.423C306.907 116.614 307.537 117.036 307.984 117.623C308.432 118.21 308.672 118.929 308.667 119.667C308.667 120.551 308.315 121.399 307.69 122.024C307.065 122.649 306.217 123 305.333 123C304.449 123 303.601 123.351 302.976 123.976C302.351 124.601 302 125.449 302 126.333C302 127.217 302.351 128.065 302.976 128.69C303.601 129.315 304.449 129.667 305.333 129.667C307.985 129.667 310.529 128.613 312.404 126.738C314.28 124.862 315.333 122.319 315.333 119.667C315.333 117.015 314.28 114.471 312.404 112.596C310.529 110.72 307.985 109.667 305.333 109.667ZM306.6 133.267C305.996 132.987 305.323 132.894 304.667 133L304.067 133.2L303.467 133.5L302.967 133.933C302.654 134.249 302.407 134.624 302.241 135.036C302.075 135.448 301.993 135.889 302 136.333C301.997 136.772 302.081 137.207 302.247 137.613C302.413 138.019 302.658 138.389 302.967 138.7C303.276 139.012 303.645 139.26 304.051 139.43C304.457 139.599 304.893 139.686 305.333 139.686C305.773 139.686 306.209 139.599 306.615 139.43C307.021 139.26 307.39 139.012 307.7 138.7C308.009 138.389 308.253 138.019 308.419 137.613C308.585 137.207 308.669 136.772 308.667 136.333C308.663 135.675 308.465 135.033 308.097 134.487C307.73 133.941 307.209 133.517 306.6 133.267Z" fill="white"/>
</svg>
